<svg xmlns="http://www.w3.org/2000/svg" width="86.111" height="12.926" viewBox="0 0 86.111 12.926"><defs><style>.a{fill:#fff;}</style></defs><g transform="translate(-596.581 61.736)"><path class="a" d="M635.679-60.076h3.313v9.606h-3.313v1.66h8.412v-1.66h-3.314v-9.606h3.314v-1.66h-8.412Z"/><path class="a" d="M622.083-55.482l2.964-4.593H626.4v-1.66h-4.621v1.66h1.281l-2.024,3.12-2.007-3.12h1.283v-1.66h-4.642v1.66h1.357L620-55.482,616.64-50.47h-1.463v1.66h5.139v-1.66h-1.624l2.347-3.485,2.346,3.485h-1.624v1.66H626.9v-1.66h-1.463Z"/><path class="a" d="M605.526-52.706c0,2.235-.11,2.235-1.469,2.235h-3.621V-55h2.336v1.947h1.784V-58.4h-1.784v1.74h-2.336v-3.414h3.25c1.449,0,1.449.032,1.449,1.655v.788h1.784v-4.1H596.581v1.66h2.069v9.606h-2.069v1.66h10.73v-4.538h-1.785Z"/><path class="a" d="M680.908-53.349v.643c0,2.235-.111,2.235-1.469,2.235h-3.623V-55h2.334v1.947h1.785V-58.4H678.15v1.74h-2.334v-3.414h3.25c1.451,0,1.451.032,1.451,1.655v.788H682.3v-4.1h-10.34v1.66h2.071v9.606h-2.071v1.66h10.731v-4.538Z"/><path class="a" d="M662.187-52.658c0,.97,0,1.555-.221,1.839-.2.255-.674.349-1.744.349H657.2v-9.606h2.34v-1.66H653.18v1.66h2.236v9.606h-2.237v1.66h10.792v-4.849h-1.784Z"/></g></svg>